HIERARCHY
ROOT reference
{
  OFFSET 0 0 0
  CHANNELS 6 Xposition Yposition Zposition Zrotation Xrotation Yrotation
  JOINT Hips
  {
    OFFSET 25.4934 74.4629 -184.085
    CHANNELS 6 Xposition Yposition Zposition Zrotation Xrotation Yrotation
    JOINT Spine
    {
      OFFSET 0 7.57377 0
      CHANNELS 6 Xposition Yposition Zposition Zrotation Xrotation Yrotation
      JOINT Spine1
      {
        OFFSET 0 21.6353 0
        CHANNELS 6 Xposition Yposition Zposition Zrotation Xrotation Yrotation
        JOINT Neck
        {
          OFFSET 0 21.5464 1.95876
          CHANNELS 6 Xposition Yposition Zposition Zrotation Xrotation Yrotation
          JOINT Head
          {
            OFFSET 0 12.9308 -1.84726
            CHANNELS 6 Xposition Yposition Zposition Zrotation Xrotation Yrotation
            End Site
            {
              OFFSET 0 23.0907 0
            }
          }
        }
        JOINT LeftShoulder
        {
          OFFSET 3.70822 19.5981 -0.368577
          CHANNELS 6 Xposition Yposition Zposition Zrotation Xrotation Yrotation
          JOINT LeftArm
          {
            OFFSET 11.1726 0 0
            CHANNELS 6 Xposition Yposition Zposition Zrotation Xrotation Yrotation
            JOINT LeftForeArm
            {
              OFFSET 28.6421 0 0
              CHANNELS 6 Xposition Yposition Zposition Zrotation Xrotation Yrotation
              JOINT LeftHand
              {
                OFFSET 23.9346 0 0
                CHANNELS 6 Xposition Yposition Zposition Zrotation Xrotation Yrotation
                End Site
                {
                  OFFSET 13.8545 0 0
                }
              }
            }
          }
        }
        JOINT RightShoulder
        {
          OFFSET -3.63664 19.5981 -0.368577
          CHANNELS 6 Xposition Yposition Zposition Zrotation Xrotation Yrotation
          JOINT RightArm
          {
            OFFSET -11.1726 0 0
            CHANNELS 6 Xposition Yposition Zposition Zrotation Xrotation Yrotation
            JOINT RightForeArm
            {
              OFFSET -28.6421 0 0
              CHANNELS 6 Xposition Yposition Zposition Zrotation Xrotation Yrotation
              JOINT RightHand
              {
                OFFSET -23.9346 0 0
                CHANNELS 6 Xposition Yposition Zposition Zrotation Xrotation Yrotation
                End Site
                {
                  OFFSET -13.8545 0 0
                }
              }
            }
          }
        }
      }
    }
    JOINT LeftUpLeg
    {
      OFFSET 9.2363 0 0
      CHANNELS 6 Xposition Yposition Zposition Zrotation Xrotation Yrotation
      JOINT LeftLeg
      {
        OFFSET 0 -40.7061 0
        CHANNELS 6 Xposition Yposition Zposition Zrotation Xrotation Yrotation
        JOINT LeftFoot
        {
          OFFSET 0 -40.9975 0
          CHANNELS 6 Xposition Yposition Zposition Zrotation Xrotation Yrotation
          JOINT LeftToeBase
          {
            OFFSET 0 -6.00359 13.8545
            CHANNELS 6 Xposition Yposition Zposition Zrotation Xrotation Yrotation
            End Site
            {
              OFFSET 0 0 3.69452
            }
          }
        }
      }
    }
    JOINT RightUpLeg
    {
      OFFSET -9.2363 0 0
      CHANNELS 6 Xposition Yposition Zposition Zrotation Xrotation Yrotation
      JOINT RightLeg
      {
        OFFSET 0 -40.7061 0
        CHANNELS 6 Xposition Yposition Zposition Zrotation Xrotation Yrotation
        JOINT RightFoot
        {
          OFFSET 0 -40.9975 0
          CHANNELS 6 Xposition Yposition Zposition Zrotation Xrotation Yrotation
          JOINT RightToeBase
          {
            OFFSET 0 -6.00359 13.8545
            CHANNELS 6 Xposition Yposition Zposition Zrotation Xrotation Yrotation
            End Site
            {
              OFFSET 0 0 3.69452
            }
          }
        }
      }
    }
  }
}
MOTION
Frames:	8
Frame Time:	0.004
0 0 0 0 0 -0 139.67 79.9951 -147.283 10.0192 0.88184 -131.492 2.84217e-014 7.57377 0 -0.103357 -2.47639 -5.89418 2.84217e-014 21.6353 0 2.87746 0.0269002 -5.89269 0 21.5464 1.95876 -4.39088 9.56508 4.47832 -2.84217e-014 12.9308 -1.84726 -1.44235 29.3365 5.1211 3.70822 19.5981 -0.368577 -17.6311 -15.7175 11.2969 11.1726 7.10543e-015 0 56.8899 74.2147 -111.346 28.6421 -2.84217e-014 0 76.5869 -56.9912 -52.3771 23.9346 7.10543e-015 0 28.2714 -22.497 -1.44036 -3.63664 19.5981 -0.368577 2.31405 19.7026 -13.7466 -11.1726 0 2.84217e-014 83.5211 32.8165 -26.7045 -28.6421 0 1.42109e-014 -15.7596 -24.8469 103.226 -23.9346 0 -1.42109e-014 -31.9928 -5.27728 -0.532571 9.2363 -7.10543e-015 -1.42109e-014 0.0917211 6.44412 5.39934 0 -40.7061 -1.42109e-014 16.4376 35.7391 -8.791 2.84217e-014 -40.9975 -7.10543e-015 5.49265 -4.70197 -12.0593 -2.84217e-014 -6.00359 13.8545 -3.18055e-015 3.18055e-015 -0 -9.2363 7.10543e-015 1.42109e-014 -0.255647 -23.3675 18.5352 -2.84217e-014 -40.7061 -1.42109e-014 5.00686 16.6087 1.7893 0 -40.9975 2.84217e-014 1.00779 -23.6612 -14.6689 0 -6.00359 13.8545 -1.59028e-015 -2.38542e-015 -6.36111e-015 
0 0 0 0 0 -0 139.365 79.8614 -147.843 10.0381 1.05757 -131.242 2.84217e-014 7.57377 -1.42109e-014 -0.0833539 -2.44718 -5.89097 5.68434e-014 21.6353 0 3.10727 0.0593934 -5.89088 -2.84217e-014 21.5464 1.95876 -4.36814 9.62775 4.43277 2.84217e-014 12.9308 -1.84726 -1.78551 29.3462 5.11246 3.70822 19.5981 -0.368577 -17.7298 -15.6255 11.2717 11.1726 0 -1.42109e-014 57.6335 74.3122 -111.817 28.6421 -7.10543e-015 0 75.8285 -56.967 -52.9325 23.9346 0 0 27.951 -22.5081 -1.37949 -3.63664 19.5981 -0.368577 2.3677 19.7314 -13.6548 -11.1726 -2.84217e-014 -2.84217e-014 83.43 32.9839 -26.7238 -28.6421 2.84217e-014 0 -16.6504 -25.762 102.94 -23.9346 0 7.10543e-015 -28.6716 -5.24096 -0.471509 9.2363 1.42109e-014 0 0.159672 6.23513 5.13654 -2.84217e-014 -40.7061 0 17.4322 36.8091 -9.64043 0 -40.9975 7.10543e-015 4.09604 -4.75175 -11.5857 -2.84217e-014 -6.00359 13.8545 1.76556e-031 3.18055e-015 -3.18055e-015 -9.2363 7.10543e-015 0 -0.0770412 -23.5287 18.6097 0 -40.7061 1.42109e-014 5.40644 17.1756 1.18795 0 -40.9975 -2.84217e-014 1.72816 -23.751 -14.8842 -2.84217e-014 -6.00359 13.8545 1.59028e-015 5.56597e-015 -0 
0 0 0 0 0 -0 139.038 79.6872 -148.447 9.92319 1.29732 -130.908 0 7.57377 0 0.139534 -2.20862 -5.88028 0 21.6353 0 2.77487 -0.0529237 -5.88175 0 21.5464 1.95876 -4.27226 9.72242 4.40572 0 12.9308 -1.84726 -1.54444 29.3354 5.04452 3.70822 19.5981 -0.368577 -17.2609 -15.3572 11.3342 11.1726 1.42109e-014 0 59.3813 74.3061 -113.538 28.6421 -1.42109e-014 0 75.8146 -56.8415 -52.6773 23.9346 -1.42109e-014 0 27.6337 -22.5644 -1.34494 -3.63664 19.5981 -0.368577 2.76721 19.7009 -13.8232 -11.1726 -1.42109e-014 0 83.3415 33.3254 -26.8217 -28.6421 0 -2.84217e-014 -16.8194 -25.0169 102.744 -23.9346 0 1.42109e-014 -33.1923 -4.54437 0.473177 9.2363 7.10543e-015 1.42109e-014 0.249462 6.16012 4.67877 0 -40.7061 -2.84217e-014 18.0045 37.9846 -9.69781 2.84217e-014 -40.9975 -7.10543e-015 4.92612 -5.3654 -11.1232 2.84217e-014 -6.00359 13.8545 3.18055e-015 0 -6.36111e-015 -9.2363 -1.42109e-014 -1.42109e-014 0.0374838 -23.5337 18.4712 0 -40.7061 1.42109e-014 5.4583 18.0499 1.38186 0 -40.9975 2.84217e-014 1.01029 -24.1664 -15.4992 0 -6.00359 13.8545 1.59028e-015 -7.95139e-016 3.18055e-015 
0 0 0 0 0 -0 138.72 79.5035 -149.018 9.87505 1.50636 -130.605 0 7.57377 -1.42109e-014 0.311757 -2.09509 -5.92373 0 21.6353 1.42109e-014 2.61343 0.00147045 -5.92942 -2.84217e-014 21.5464 1.95876 -3.96208 9.6522 4.42225 0 12.9308 -1.84726 -1.90283 29.4057 5.09114 3.70822 19.5981 -0.368577 -16.9194 -15.2648 11.5065 11.1726 -7.10543e-015 0 59.5127 74.3942 -113.671 28.6421 7.10543e-015 0 74.5462 -56.727 -53.7328 23.9346 -2.13163e-014 -1.42109e-014 27.3491 -22.363 -1.34106 -3.63664 19.5981 -0.368577 3.00503 19.5285 -13.7577 -11.1726 0 0 83.2549 33.7268 -26.921 -28.6421 0 2.84217e-014 -16.0389 -25.6694 103.532 -23.9346 0 -1.42109e-014 -35.7033 -5.69926 -0.456593 9.2363 -7.10543e-015 -2.84217e-014 0.307656 5.96892 4.28293 0 -40.7061 0 19.0274 39.1447 -10.9178 0 -40.9975 7.10543e-015 4.08999 -5.08719 -10.2177 0 -6.00359 13.8545 -1.05934e-030 6.36111e-015 9.54166e-015 -9.2363 1.42109e-014 0 0.164505 -23.6625 18.1004 0 -40.7061 1.42109e-014 5.66039 18.8267 1.28234 0 -40.9975 -2.84217e-014 0.703195 -24.5574 -15.9967 0 -6.00359 13.8545 4.41391e-031 -1.59028e-015 1.59028e-014 
0 0 0 0 0 -0 138.413 79.3136 -149.586 9.88307 1.70557 -130.366 0 7.57377 -1.42109e-014 0.2596 -2.18354 -5.96794 0 21.6353 1.42109e-014 2.99835 0.339893 -5.98196 0 21.5464 1.95876 -4.16124 9.5849 4.45829 0 12.9308 -1.84726 -1.99379 29.3404 5.15359 3.70822 19.5981 -0.368577 -17.038 -15.3501 11.5323 11.1726 0 2.84217e-014 62.0254 74.4191 -115.928 28.6421 -1.42109e-014 0 74.9065 -56.5335 -53.0431 23.9346 2.13163e-014 0 27.0411 -22.3928 -1.13919 -3.63664 19.5981 -0.368577 2.8391 19.3256 -13.3978 -11.1726 2.84217e-014 0 83.283 33.8565 -26.9329 -28.6421 0 2.84217e-014 -16.1155 -26.1977 103.702 -23.9346 0 1.42109e-014 -35.8997 -6.03669 -0.70694 9.2363 7.10543e-015 -1.42109e-014 0.458102 5.72842 3.58322 0 -40.7061 -1.42109e-014 19.3455 40.4258 -10.1929 2.84217e-014 -40.9975 -7.10543e-015 4.11089 -5.57113 -10.4165 2.84217e-014 -6.00359 13.8545 -3.18055e-015 -3.18055e-015 -0 -9.2363 0 -1.42109e-014 0.366804 -23.855 17.5893 -2.84217e-014 -40.7061 7.10543e-015 5.82118 19.68 1.25925 0 -40.9975 0 0.999682 -24.5939 -16.323 2.84217e-014 -6.00359 13.8545 1.59028e-015 0 3.18055e-015 
0 0 0 0 0 -0 138.087 79.1138 -150.155 9.83543 2.01531 -130.129 0 7.57377 0 0.339101 -1.99275 -5.85987 0 21.6353 -1.42109e-014 3.30894 0.351355 -5.87593 0 21.5464 1.95876 -4.19329 9.50315 4.34074 2.84217e-014 12.9308 -1.84726 -2.25292 29.5441 5.07301 3.70822 19.5981 -0.368577 -17.1771 -15.2071 11.3851 11.1726 0 0 63.7372 74.4614 -117.421 28.6421 -1.42109e-014 2.84217e-014 74.5086 -56.4565 -53.1055 23.9346 0 1.42109e-014 26.736 -22.5334 -1.12288 -3.63664 19.5981 -0.368577 2.77073 19.1997 -13.6362 -11.1726 0 1.42109e-014 83.1172 34.0627 -26.8477 -28.6421 0 0 -16.2208 -26.248 103.793 -23.9346 2.84217e-014 -7.10543e-015 -36.0613 -6.06137 -0.257787 9.2363 0 1.42109e-014 0.603812 5.6425 3.03956 0 -40.7061 1.42109e-014 19.8806 41.5577 -10.1807 0 -40.9975 -1.42109e-014 3.87698 -5.50451 -10.2698 0 -6.00359 13.8545 3.18055e-015 -3.18055e-015 -6.36111e-015 -9.2363 7.10543e-015 0 0.582339 -23.9024 16.7073 0 -40.7061 -1.42109e-014 5.8823 20.6259 1.54563 2.84217e-014 -40.9975 -4.26326e-014 0.946227 -24.8843 -16.7146 2.84217e-014 -6.00359 13.8545 -1.59028e-015 7.15625e-015 -0 
0 0 0 0 0 -0 137.775 78.8761 -150.751 9.77029 2.32924 -129.85 0 7.57377 0 0.465171 -1.79394 -5.82828 0 21.6353 1.42109e-014 3.40199 0.381334 -5.84695 2.84217e-014 21.5464 1.95876 -4.09688 9.50476 4.29625 0 12.9308 -1.84726 -2.45485 29.5382 5.04572 3.70822 19.5981 -0.368577 -17.0729 -15.0887 11.3996 11.1726 0 1.42109e-014 65.5293 74.5096 -119.078 28.6421 2.13163e-014 0 74.2382 -56.2793 -53.0949 23.9346 -7.10543e-015 0 26.4415 -22.4293 -0.910172 -3.63664 19.5981 -0.368577 2.8832 19.0731 -13.7614 -11.1726 0 1.42109e-014 82.8802 34.4254 -26.7143 -28.6421 0 0 -16.2419 -26.3331 103.794 -23.9346 0 0 -35.8247 -6.17916 -0.0976742 9.2363 -7.10543e-015 0 0.759155 5.53137 2.39451 0 -40.7061 2.84217e-014 20.5519 42.8419 -10.6422 -2.84217e-014 -40.9975 -1.42109e-014 3.87649 -6.01273 -9.5157 -2.84217e-014 -6.00359 13.8545 -3.53113e-031 3.18055e-015 6.36111e-015 -9.2363 0 0 0.797097 -23.9379 15.8772 0 -40.7061 -1.42109e-014 6.00692 21.5543 1.45172 2.84217e-014 -40.9975 0 1.04038 -25.1378 -16.9875 0 -6.00359 13.8545 -3.18055e-015 -3.97569e-015 -1.90833e-014 
0 0 0 0 0 -0 137.448 78.6206 -151.334 9.70608 2.61491 -129.571 0 7.57377 0 0.726623 -1.66197 -5.83485 2.84217e-014 21.6353 -2.84217e-014 3.16489 0.495127 -5.85901 0 21.5464 1.95876 -4.03365 9.30045 4.25929 0 12.9308 -1.84726 -2.29526 29.8022 4.99659 3.70822 19.5981 -0.368577 -16.6999 -15.0239 11.603 11.1726 7.10543e-015 0 65.9595 74.6455 -119.52 28.6421 1.42109e-014 0 72.8894 -56.1145 -54.1553 23.9346 0 2.84217e-014 26.0694 -22.2283 -0.921269 -3.63664 19.5981 -0.368577 3.55789 19.4564 -13.9286 -11.1726 1.42109e-014 2.84217e-014 82.0717 34.9283 -25.9037 -28.6421 0 0 -16.4306 -26.7422 103.785 -23.9346 0 7.10543e-015 -36.7422 -6.40791 -0.0240135 9.2363 -7.10543e-015 0 0.87377 5.40049 1.69626 0 -40.7061 1.42109e-014 21.3296 44.1471 -11.0548 -2.84217e-014 -40.9975 7.10543e-015 4.1568 -6.65206 -9.80456 0 -6.00359 13.8545 -6.36111e-015 3.18055e-015 3.18055e-015 -9.2363 7.10543e-015 1.42109e-014 0.917792 -23.9577 14.8401 0 -40.7061 7.10543e-015 6.11257 22.4526 1.73525 2.84217e-014 -40.9975 -1.42109e-014 0.684164 -25.2878 -17.4533 5.68434e-014 -6.00359 13.8545 1.59028e-015 0 -3.18055e-015 
